<svg width="24" height="25" viewBox="0 0 24 25" fill="none" xmlns="http://www.w3.org/2000/svg">
<g id="Bookmark Icon" clip-path="url(#clip0_1033_6112)">
<path id="Vector" d="M5 2.5H19C19.2652 2.5 19.5196 2.60536 19.7071 2.79289C19.8946 2.98043 20 3.23478 20 3.5V22.643C20.0001 22.7324 19.9763 22.8202 19.9309 22.8973C19.8855 22.9743 19.8204 23.0378 19.7421 23.0811C19.6639 23.1244 19.5755 23.1459 19.4861 23.1434C19.3968 23.141 19.3097 23.1146 19.234 23.067L12 18.53L4.766 23.066C4.69037 23.1135 4.60339 23.1399 4.5141 23.1424C4.42482 23.1449 4.33649 23.1235 4.2583 23.0803C4.1801 23.0371 4.11491 22.9738 4.06948 22.8969C4.02406 22.82 4.00007 22.7323 4 22.643V3.5C4 3.23478 4.10536 2.98043 4.29289 2.79289C4.48043 2.60536 4.73478 2.5 5 2.5ZM18 4.5H6V19.932L12 16.171L18 19.932V4.5Z" fill="#4E4B66"/>
</g>
<defs>
<clipPath id="clip0_1033_6112">
<rect width="24" height="24" fill="white" transform="translate(0 0.5)"/>
</clipPath>
</defs>
</svg>
