<svg width="17" height="16" viewBox="0 0 17 16" fill="none" xmlns="http://www.w3.org/2000/svg">
<path id="Vector" d="M0.500014 3.36842C0.500014 2.90358 0.864014 2.52632 1.29361 2.52632H15.7064C16.1448 2.52632 16.5 2.90105 16.5 3.36842V15.1579C16.5 15.6227 16.136 16 15.7064 16H1.29361C1.18892 15.9998 1.08529 15.9778 0.988683 15.9353C0.892076 15.8928 0.804389 15.8307 0.730655 15.7525C0.65692 15.6742 0.59859 15.5814 0.55901 15.4794C0.519431 15.3774 0.499382 15.2681 0.500014 15.1579V3.36842ZM2.10001 4.21053V14.3158H14.9V4.21053H2.10001ZM10.1 11.7895C10.7365 11.7895 11.347 11.5233 11.7971 11.0495C12.2471 10.5758 12.5 9.93318 12.5 9.26316C12.5 8.59314 12.2471 7.95056 11.7971 7.47678C11.347 7.00301 10.7365 6.73684 10.1 6.73684C9.46349 6.73684 8.85304 7.00301 8.40295 7.47678C7.95286 7.95056 7.70001 8.59314 7.70001 9.26316C7.70001 9.93318 7.95286 10.5758 8.40295 11.0495C8.85304 11.5233 9.46349 11.7895 10.1 11.7895ZM10.1 13.4737C9.03914 13.4737 8.02173 13.0301 7.27158 12.2404C6.52144 11.4508 6.10001 10.3799 6.10001 9.26316C6.10001 8.14646 6.52144 7.07549 7.27158 6.28587C8.02173 5.49624 9.03914 5.05263 10.1 5.05263C11.1609 5.05263 12.1783 5.49624 12.9284 6.28587C13.6786 7.07549 14.1 8.14646 14.1 9.26316C14.1 10.3799 13.6786 11.4508 12.9284 12.2404C12.1783 13.0301 11.1609 13.4737 10.1 13.4737ZM2.10001 0H6.90001V1.68421H2.10001V0Z" fill="white"/>
</svg>
