<svg width="25" height="24" viewBox="0 0 25 24" fill="none" xmlns="http://www.w3.org/2000/svg">
<g id="Icon" clip-path="url(#clip0_79_6393)">
<path id="Vector" d="M2.5 8.99401C2.49947 8.20621 2.65435 7.42605 2.95577 6.69819C3.25718 5.97034 3.69921 5.30909 4.25655 4.75231C4.81388 4.19553 5.47558 3.75416 6.20373 3.45348C6.93189 3.15279 7.71221 2.99869 8.5 3.00001H16.5C19.813 3.00001 22.5 5.69501 22.5 8.99401V21H8.5C5.187 21 2.5 18.305 2.5 15.006V8.99401ZM20.5 19V8.99401C20.4974 7.93451 20.0749 6.91925 19.3251 6.17063C18.5754 5.42201 17.5595 5.00106 16.5 5.00001H8.5C7.97485 4.99869 7.4546 5.10106 6.9691 5.30123C6.48359 5.50141 6.04238 5.79546 5.67076 6.16652C5.29914 6.53758 5.00443 6.97835 4.80353 7.46356C4.60262 7.94876 4.49947 8.46886 4.5 8.99401V15.006C4.50265 16.0655 4.92511 17.0808 5.67486 17.8294C6.4246 18.578 7.4405 18.999 8.5 19H20.5ZM14.5 11H16.5V13H14.5V11ZM8.5 11H10.5V13H8.5V11Z" fill="#050505"/>
</g>
<defs>
<clipPath id="clip0_79_6393">
<rect width="24" height="24" fill="white" transform="translate(0.5)"/>
</clipPath>
</defs>
</svg>
