<svg width="14" height="14" viewBox="0 0 14 14" fill="none" xmlns="http://www.w3.org/2000/svg">
<g id="Heart Icon" clip-path="url(#clip0_1033_2507)">
<path id="Vector" d="M9.62499 1.75C11.3972 1.75 12.8333 3.20833 12.8333 5.25C12.8333 9.33333 8.45832 11.6667 6.99999 12.5417C5.54166 11.6667 1.16666 9.33333 1.16666 5.25C1.16666 3.20833 2.62499 1.75 4.37499 1.75C5.45999 1.75 6.41666 2.33333 6.99999 2.91667C7.58332 2.33333 8.53999 1.75 9.62499 1.75ZM7.54482 10.8523C8.05874 10.528 8.52249 10.2054 8.95649 9.86008C10.6954 8.47758 11.6667 6.96675 11.6667 5.25C11.6667 3.87333 10.7701 2.91667 9.62499 2.91667C8.99732 2.91667 8.31832 3.24917 7.82482 3.7415L6.99999 4.56633L6.17516 3.7415C5.68166 3.24917 5.00266 2.91667 4.37499 2.91667C3.24332 2.91667 2.33332 3.88267 2.33332 5.25C2.33332 6.96733 3.30516 8.47758 5.04291 9.86008C5.47749 10.2054 5.94124 10.528 6.45516 10.8518C6.62957 10.962 6.80224 11.0676 6.99999 11.1854C7.19774 11.0676 7.37041 10.962 7.54482 10.8523Z" fill="#4E4B66"/>
</g>
<defs>
<clipPath id="clip0_1033_2507">
<rect width="14" height="14" fill="white"/>
</clipPath>
</defs>
</svg>
