<svg width="24" height="25" viewBox="0 0 24 25" fill="none" xmlns="http://www.w3.org/2000/svg">
<g id="Home" clip-path="url(#clip0_1033_6101)">
<path id="Vector" d="M13 19.4998H19V10.4778L12 5.03378L5 10.4778V19.4998H11V13.4998H13V19.4998ZM21 20.4998C21 20.765 20.8946 21.0194 20.7071 21.2069C20.5196 21.3944 20.2652 21.4998 20 21.4998H4C3.73478 21.4998 3.48043 21.3944 3.29289 21.2069C3.10536 21.0194 3 20.765 3 20.4998V9.98978C2.99989 9.8374 3.03462 9.687 3.10152 9.55008C3.16841 9.41317 3.26572 9.29335 3.386 9.19978L11.386 2.97778C11.5615 2.84123 11.7776 2.76709 12 2.76709C12.2224 2.76709 12.4385 2.84123 12.614 2.97778L20.614 9.19978C20.7343 9.29335 20.8316 9.41317 20.8985 9.55008C20.9654 9.687 21.0001 9.8374 21 9.98978V20.4998Z" fill="#4E4B66"/>
</g>
<defs>
<clipPath id="clip0_1033_6101">
<rect width="24" height="24" fill="white" transform="translate(0 0.5)"/>
</clipPath>
</defs>
</svg>
