<svg width="14" height="14" viewBox="0 0 14 14" fill="none" xmlns="http://www.w3.org/2000/svg">
<g id="Icon" clip-path="url(#clip0_1045_922)">
<path id="Vector" d="M2.625 6.125C2.14375 6.125 1.75 6.51875 1.75 7C1.75 7.48125 2.14375 7.875 2.625 7.875C3.10625 7.875 3.5 7.48125 3.5 7C3.5 6.51875 3.10625 6.125 2.625 6.125ZM11.375 6.125C10.8937 6.125 10.5 6.51875 10.5 7C10.5 7.48125 10.8937 7.875 11.375 7.875C11.8562 7.875 12.25 7.48125 12.25 7C12.25 6.51875 11.8562 6.125 11.375 6.125ZM7 6.125C6.51875 6.125 6.125 6.51875 6.125 7C6.125 7.48125 6.51875 7.875 7 7.875C7.48125 7.875 7.875 7.48125 7.875 7C7.875 6.51875 7.48125 6.125 7 6.125Z" fill="#4E4B66"/>
</g>
<defs>
<clipPath id="clip0_1045_922">
<rect width="14" height="14" fill="white"/>
</clipPath>
</defs>
</svg>
