<svg width="17" height="17" viewBox="0 0 17 17" fill="none" xmlns="http://www.w3.org/2000/svg">
<g id="Frame" clip-path="url(#clip0_1033_5643)">
<path id="Vector" d="M8.50004 15.1666C4.81804 15.1666 1.83337 12.182 1.83337 8.49998C1.83337 4.81798 4.81804 1.83331 8.50004 1.83331C12.182 1.83331 15.1667 4.81798 15.1667 8.49998C15.1667 12.182 12.182 15.1666 8.50004 15.1666ZM8.50004 13.8333C9.91453 13.8333 11.2711 13.2714 12.2713 12.2712C13.2715 11.271 13.8334 9.91447 13.8334 8.49998C13.8334 7.08549 13.2715 5.72894 12.2713 4.72874C11.2711 3.72855 9.91453 3.16665 8.50004 3.16665C7.08555 3.16665 5.729 3.72855 4.7288 4.72874C3.72861 5.72894 3.16671 7.08549 3.16671 8.49998C3.16671 9.91447 3.72861 11.271 4.7288 12.2712C5.729 13.2714 7.08555 13.8333 8.50004 13.8333ZM7.83337 10.5H9.16671V11.8333H7.83337V10.5ZM7.83337 5.16665H9.16671V9.16665H7.83337V5.16665Z" fill="#C30052"/>
</g>
<defs>
<clipPath id="clip0_1033_5643">
<rect width="16" height="16" fill="white" transform="translate(0.5 0.5)"/>
</clipPath>
</defs>
</svg>
