<svg width="24" height="24" viewBox="0 0 24 24" fill="none" xmlns="http://www.w3.org/2000/svg">
<g id="Icon" clip-path="url(#clip0_82_6232)">
<path id="Vector" d="M13.12 17.0232L8.921 14.7332C8.3728 15.3193 7.66098 15.7269 6.87807 15.9031C6.09516 16.0793 5.27735 16.0159 4.53092 15.7212C3.78449 15.4266 3.14396 14.9142 2.69257 14.2506C2.24118 13.5871 1.99979 12.8032 1.99979 12.0007C1.99979 11.1982 2.24118 10.4143 2.69257 9.75076C3.14396 9.08725 3.78449 8.57486 4.53092 8.28016C5.27735 7.98547 6.09516 7.92211 6.87807 8.09832C7.66098 8.27452 8.3728 8.68214 8.921 9.2682L13.121 6.9782C12.8826 6.03428 12.9966 5.03579 13.4416 4.16991C13.8867 3.30402 14.6323 2.63018 15.5387 2.2747C16.445 1.91923 17.4499 1.90651 18.365 2.23894C19.28 2.57137 20.0425 3.22612 20.5093 4.08046C20.9762 4.93481 21.1154 5.93009 20.9009 6.87975C20.6864 7.82941 20.1329 8.66824 19.3442 9.23901C18.5555 9.80979 17.5857 10.0733 16.6166 9.9802C15.6475 9.88708 14.7456 9.44371 14.08 8.7332L9.88 11.0232C10.0412 11.6646 10.0412 12.3358 9.88 12.9772L14.079 15.2672C14.7446 14.5567 15.6465 14.1133 16.6156 14.0202C17.5847 13.9271 18.5545 14.1906 19.3432 14.7614C20.1319 15.3322 20.6854 16.171 20.8999 17.1207C21.1144 18.0703 20.9752 19.0656 20.5083 19.9199C20.0415 20.7743 19.279 21.429 18.364 21.7615C17.4489 22.0939 16.444 22.0812 15.5377 21.7257C14.6313 21.3702 13.8857 20.6964 13.4406 19.8305C12.9956 18.9646 12.8816 17.9661 13.12 17.0222V17.0232ZM6 14.0002C6.53043 14.0002 7.03914 13.7895 7.41421 13.4144C7.78929 13.0393 8 12.5306 8 12.0002C8 11.4698 7.78929 10.9611 7.41421 10.586C7.03914 10.2109 6.53043 10.0002 6 10.0002C5.46957 10.0002 4.96086 10.2109 4.58579 10.586C4.21071 10.9611 4 11.4698 4 12.0002C4 12.5306 4.21071 13.0393 4.58579 13.4144C4.96086 13.7895 5.46957 14.0002 6 14.0002ZM17 8.0002C17.5304 8.0002 18.0391 7.78949 18.4142 7.41442C18.7893 7.03934 19 6.53064 19 6.0002C19 5.46977 18.7893 4.96106 18.4142 4.58599C18.0391 4.21092 17.5304 4.0002 17 4.0002C16.4696 4.0002 15.9609 4.21092 15.5858 4.58599C15.2107 4.96106 15 5.46977 15 6.0002C15 6.53064 15.2107 7.03934 15.5858 7.41442C15.9609 7.78949 16.4696 8.0002 17 8.0002ZM17 20.0002C17.5304 20.0002 18.0391 19.7895 18.4142 19.4144C18.7893 19.0393 19 18.5306 19 18.0002C19 17.4698 18.7893 16.9611 18.4142 16.586C18.0391 16.2109 17.5304 16.0002 17 16.0002C16.4696 16.0002 15.9609 16.2109 15.5858 16.586C15.2107 16.9611 15 17.4698 15 18.0002C15 18.5306 15.2107 19.0393 15.5858 19.4144C15.9609 19.7895 16.4696 20.0002 17 20.0002Z" fill="#4E4B66"/>
</g>
<defs>
<clipPath id="clip0_82_6232">
<rect width="24" height="24" fill="white"/>
</clipPath>
</defs>
</svg>
